<svg width="32" height="32" viewBox="0 0 32 32" xmlns="http://www.w3.org/2000/svg" fill="currentColor">
<title>heart</title>
<path d="M19.0928 8.50067C18.0076 8.48497 16.876 8.79954 15.999 9.68276C15.1152 8.80126 13.9727 8.50061 12.9169 8.50061C10.2933 8.50061 7.66676 10.6743 7.66676 13.7506C7.66676 16.7167 9.56388 19.186 11.4402 20.8648C12.3896 21.7142 13.3634 22.3886 14.1542 22.853C14.5493 23.085 14.9055 23.2686 15.1961 23.3965C15.3409 23.4602 15.4768 23.5133 15.5978 23.5517C15.7031 23.5851 15.8515 23.6255 16.0003 23.6255C16.1492 23.6255 16.2976 23.5851 16.4029 23.5517C16.5239 23.5133 16.6598 23.4602 16.8046 23.3965C17.0952 23.2686 17.4514 23.085 17.8465 22.853C18.6373 22.3886 19.611 21.7142 20.5604 20.8648C22.4368 19.186 24.3339 16.7167 24.3339 13.7506C24.3339 10.667 21.7012 8.53841 19.0928 8.50067Z" />
</svg>
